<svg id="Layer_1" fill="#5c739e" data-name="Layer 1" xmlns="http://www.w3.org/2000/svg" viewBox="0 0 256 256"><title>discorddss3</title><path d="M40.29,177.74,36.08,175C37.48,175.91,38.88,176.83,40.29,177.74Z"/><path d="M220,58.29c-17.12-12.18-36.35-19.24-56.9-23.13l-3.64,5.72c25.22,6.89,42.43,16.33,52.49,28.06-55.61-30.4-108.91-30.13-168.89-.26,12.9-13.16,31-22.05,53.26-27.54l-2.85-6C71.07,39.58,50.73,46.39,35.3,58.81,14,96.32,4.16,139.35,1.53,185.87,20.3,208,45.76,218.17,75.84,220.16l9.61-12.47a158.05,158.05,0,0,1-45.16-29.95c-1.41-.91-2.81-1.83-4.21-2.79l4.21,2.79c57.49,37.15,123.44,35.25,179.23-3.05C207.87,187,192.23,198.2,170.94,208l8.57,12.21c30.19-1.54,55.6-12.08,74.83-34.29C253.94,142.26,243.09,99.68,220,58.29ZM110.11,142c-1.62,11.75-7.5,18.13-17.18,19.71a16.83,16.83,0,0,1-4.91.09c-10-1.31-15.39-8.33-17.08-19.92a18.68,18.68,0,0,1,0-5.12q1.42-11,8.6-16.18a19,19,0,0,1,19.24-1.8c6.27,3,10.07,9,11.37,18A19,19,0,0,1,110.11,142Zm74.83-.06c-1.62,11.75-7.5,18.13-17.18,19.72a16.83,16.83,0,0,1-4.91.09c-10-1.31-15.39-8.33-17.08-19.92a18.76,18.76,0,0,1-.05-5.13q1.42-10.95,8.6-16.17a18.93,18.93,0,0,1,19.24-1.8c6.27,3,10.08,9,11.37,18A18.56,18.56,0,0,1,184.94,141.9Z"/></svg>