<svg id="Layer_1" fill="#5c739e" data-name="Layer 1" xmlns="http://www.w3.org/2000/svg" viewBox="0 0 256 256"><title>twitterdss3</title><path d="M254.75,50.25c-11.42,4.19-22,7.35-30.25,7.62,11.78-7.84,19.59-16.69,22.85-28.18-10.45,5.48-21.13,10.61-33.51,13-23.25-34-97.88-16.91-88.35,47C81.08,87,45.87,67.59,18.86,35.78,3.36,60.29,14.44,89.61,34.6,104.33c-8.81.43-16-2.62-22.85-6.35.52,24.37,11.3,43,40.62,51.29-6.63,3.17-14.86,2.53-23.35,1.27C37.7,169,49.58,184.66,77.76,186.59L1.12,208.68c108.48,59.75,229.73-9.4,226.94-132A105.68,105.68,0,0,0,254.75,50.25Z"/></svg>