<?xml version="1.0" encoding="utf-8"?>
<!-- Generator: Adobe Illustrator 22.0.1, SVG Export Plug-In . SVG Version: 6.00 Build 0)  -->
<svg version="1.1" id="Layer_1" xmlns="http://www.w3.org/2000/svg" xmlns:xlink="http://www.w3.org/1999/xlink" x="0px" y="0px"
	 viewBox="0 0 338.4 65.6" style="enable-background:new 0 0 338.4 65.6;" xml:space="preserve">
<style type="text/css">
	.st0{display:none;}
	.st1{display:inline;enable-background:new    ;}
	.st2{fill:#ffffff;}
	.st3{fill:#ffffff;}
	.st4{fill:#ffffff;}
	.st5{display:inline;}
	.st6{enable-background:new    ;}
	.st7{fill:#105536;}
	.st8{fill:#0A3521;}
	.st9{fill:#0E4C30;}
	.st10{fill:#282B80;}
	.st11{fill:#212367;}
	.st12{fill:#292C82;}
	.st13{display:inline;fill:#ffffff;}
	.st14{display:inline;fill:#ffffff;}
	.st15{display:inline;fill:#ffffff;}
	.st16{fill:#ffffff;}
	.st17{fill:#ffffff;}
	.st18{fill:none;}
	.st19{fill:#ffffff;}
	.st20{fill:#ffffff;}
</style>
<g class="st0">
	<g class="st1">
		<g>
			<polygon class="st2" points="315.3,-89.5 315.1,-8.8 240.8,34.3 241,-46.4 			"/>
		</g>
		<g>
			<polygon class="st3" points="241,-46.4 240.8,34.3 166,-8.8 166.2,-89.5 			"/>
		</g>
		<g>
			<polygon class="st4" points="315.3,-89.5 241,-46.4 166.2,-89.5 240.5,-132.7 			"/>
		</g>
	</g>
</g>
<g class="st0">
	<g class="st1">
		<g>
			<polygon class="st2" points="241.4,-46.5 241.1,34.2 166.8,77.4 167.1,-3.3 			"/>
		</g>
		<g>
			<polygon class="st3" points="167.1,-3.3 166.8,77.4 92,34.2 92.3,-46.5 			"/>
		</g>
		<g>
			<polygon class="st4" points="241.4,-46.5 167.1,-3.3 92.3,-46.5 166.6,-89.7 			"/>
		</g>
	</g>
</g>
<g class="st0">
	<g class="st1">
		<g>
			<polygon class="st2" points="241.7,-127.2 241.5,-46.5 167.2,-3.3 167.4,-84 			"/>
		</g>
		<g>
			<polygon class="st3" points="167.4,-84 167.2,-3.3 92.4,-46.5 92.6,-127.2 			"/>
		</g>
		<g>
			<polygon class="st4" points="241.7,-127.2 167.4,-84 92.6,-127.2 166.9,-170.4 			"/>
		</g>
	</g>
</g>
<g class="st0">
	<g class="st5">
		<g class="st6">
			<g>
				<polygon class="st7" points="85.5,-223 86,-91 -60.3,-53.4 -60.8,-185.4 				"/>
			</g>
			<g>
				<polygon class="st8" points="-60.8,-185.4 -60.3,-53.4 -161.2,-107 -161.7,-239 				"/>
			</g>
			<g>
				<polygon class="st9" points="85.5,-223 -60.8,-185.4 -161.7,-239 -15.4,-276.7 				"/>
			</g>
		</g>
	</g>
</g>
<g class="st0">
	<g class="st1">
		<g>
			<polygon class="st10" points="129.6,-140.2 129.4,-92.6 86.5,-72.4 86.6,-120.1 			"/>
		</g>
		<g>
			<polygon class="st11" points="86.6,-120.1 86.5,-72.4 46,-94 46.1,-141.6 			"/>
		</g>
		<g>
			<polygon class="st11" points="129.6,-140.2 86.6,-120.1 46.1,-141.6 89.1,-161.7 			"/>
		</g>
	</g>
</g>
<g class="st0">
	<g class="st1">
		<g>
			<polygon class="st10" points="86.5,-120.1 86.4,-72.4 43.4,-52.3 43.6,-99.9 			"/>
		</g>
		<g>
			<polygon class="st11" points="43.6,-99.9 43.4,-52.3 2.9,-73.8 3.1,-121.5 			"/>
		</g>
		<g>
			<polygon class="st12" points="86.5,-120.1 43.6,-99.9 3.1,-121.5 46,-141.6 			"/>
		</g>
	</g>
</g>
<g class="st0">
	<g class="st1">
		<g>
			<polygon class="st10" points="-30.6,-193 -30.7,-145.4 -73.6,-125.2 -73.5,-172.9 			"/>
		</g>
		<g>
			<polygon class="st11" points="-73.5,-172.9 -73.6,-125.2 -114.1,-146.8 -114,-194.4 			"/>
		</g>
		<g>
			<polygon class="st12" points="-30.6,-193 -73.5,-172.9 -114,-194.4 -71.1,-214.5 			"/>
		</g>
	</g>
</g>
<g class="st0">
	<g class="st1">
		<g>
			<polygon class="st10" points="4.1,-103.7 3.9,-56.1 -39,-35.9 -38.9,-83.6 			"/>
		</g>
		<g>
			<polygon class="st11" points="-38.9,-83.6 -39,-35.9 -79.5,-57.4 -79.4,-105.1 			"/>
		</g>
		<g>
			<polygon class="st12" points="4.1,-103.7 -38.9,-83.6 -79.4,-105.1 -36.4,-125.2 			"/>
		</g>
	</g>
</g>
<image style="display:none;overflow:visible;" width="1920" height="1080" xlink:href="new8.png"  transform="matrix(6.0496 0 0 5.3704 -1659.6058 -669.7692)">
</image>
<g class="st0">
	<polygon class="st13" points="-203.2,-68.9 -203.2,-15.8 -182.2,-5.2 -182.2,-58 	"/>
	<polygon class="st14" points="-182.2,-79.7 -160.6,-68.9 -182.2,-58 -203.2,-68.9 	"/>
	<polygon class="st15" points="-182.2,-5.2 -160.6,-15.7 -160.6,-68.9 -182.2,-58 	"/>
	<polygon class="st15" points="-160.6,-15.7 -139.3,-26.5 -139.3,-47.7 -160.6,-37 	"/>
	<polygon class="st14" points="-160.6,-58.4 -139.3,-47.7 -160.6,-37 	"/>
	<polygon class="st14" points="-182.2,-26.3 -203.2,-36.8 -224.5,-26 -203.5,-15.7 	"/>
	<g class="st5">
		<polygon class="st16" points="-224.5,-26 -224.5,-5.3 -203.2,5.3 -203.5,-15.7 		"/>
		<polygon class="st17" points="-182.2,-26.3 -203.5,-15.7 -203.2,5.3 -181.9,-5.4 		"/>
	</g>
</g>
<path class="st18" d="M171.1,32.9c-3.6,0-6.6,2.5-6.6,6.9s3,6.9,6.6,6.9c1.8,0,4.2-0.9,5.5-2.4v-9.1
	C175.3,33.7,172.8,32.9,171.1,32.9z"/>
<path class="st18" d="M278.3,32.9c-4,0-6.3,3-6.3,6.9c0,3.9,2.3,6.9,6.3,6.9c4.1,0,6.4-3,6.4-6.9C284.7,35.9,282.4,32.9,278.3,32.9z
	"/>
<path class="st18" d="M215.6,32.9c-1.8,0-4.2,0.9-5.5,2.4v9.1c1.2,1.5,3.7,2.3,5.5,2.3c3.6,0,6.6-2.5,6.6-6.9
	C222.2,35.3,219.2,32.9,215.6,32.9z"/>
<path class="st18" d="M108.2,32.9c-1.8,0-4.2,0.9-5.5,2.4v9.1c1.2,1.5,3.7,2.3,5.5,2.3c3.6,0,6.6-2.5,6.6-6.9
	C114.7,35.3,111.7,32.9,108.2,32.9z"/>
<path class="st19" d="M112.6,21.3c-3.6,0-7.2,1.2-9.9,4.6V8.7H89.5v48.7h13.1v-3.7c3,3.4,6.4,4.6,9.9,4.6c8.5,0,15.5-6.4,15.5-18.5
	C128.2,28,121.3,21.3,112.6,21.3z M108.2,46.7c-1.8,0-4.2-0.8-5.5-2.3v-9.1c1.2-1.5,3.7-2.4,5.5-2.4c3.6,0,6.6,2.5,6.6,6.9
	C114.7,44.2,111.7,46.7,108.2,46.7z"/>
<circle class="st19" cx="139.6" cy="11.1" r="7.4"/>
<rect x="133" y="22.1" class="st19" width="13.1" height="35.3"/>
<path class="st19" d="M176.6,25.9c-2.8-3.4-6.4-4.6-9.9-4.6c-8.7,0-15.5,6.8-15.5,18.5c0,12.1,7,18.5,15.5,18.5
	c3.6,0,6.9-1.2,9.9-4.6v3.7h13.1V8.7h-13.1V25.9z M176.6,44.3c-1.2,1.5-3.7,2.4-5.5,2.4c-3.6,0-6.6-2.6-6.6-6.9s3-6.9,6.6-6.9
	c1.8,0,4.2,0.8,5.5,2.3V44.3z"/>
<path class="st17" d="M220.1,21.3c-3.6,0-7.2,1.2-9.9,4.6V8.7H197v48.7h13.1v-3.7c3,3.4,6.4,4.6,9.9,4.6c8.5,0,15.5-6.4,15.5-18.5
	C235.6,28,228.7,21.3,220.1,21.3z M215.6,46.7c-1.8,0-4.2-0.8-5.5-2.3v-9.1c1.2-1.5,3.7-2.4,5.5-2.4c3.6,0,6.6,2.5,6.6,6.9
	C222.2,44.2,219.2,46.7,215.6,46.7z"/>
<rect x="240.5" y="8.7" class="st17" width="13.1" height="48.7"/>
<path class="st17" d="M278.3,21.3c-12.5,0-19.8,8.6-19.8,18.5s7.3,18.5,19.8,18.5c12.6,0,19.9-8.7,19.9-18.5S290.9,21.3,278.3,21.3z
	 M278.3,46.7c-4,0-6.3-3-6.3-6.9c0-3.9,2.3-6.9,6.3-6.9c4.1,0,6.4,3,6.4,6.9C284.7,43.7,282.4,46.7,278.3,46.7z"/>
<polygon class="st17" points="325.3,39.3 336.1,22.1 321.7,22.1 316.9,30.4 312.2,22.1 297.8,22.1 308.6,39.3 297.1,57.4 
	311.4,57.4 317,48 322.5,57.4 336.9,57.4 "/>
<g>
	<g id="XMLID_1_">
		<g>
			<polygon class="st20" points="69.4,25.2 52.2,30.5 52.3,19.7 			"/>
			<polygon class="st20" points="52.4,7.5 35.1,12.7 17.7,7.1 34.9,1.9 			"/>
			<polygon class="st16" points="35.1,12.7 35,35.7 17.6,30.1 17.7,7.1 			"/>
			<polygon class="st17" points="35,35.7 35.1,12.7 52.4,7.5 52.3,19.7 52.2,30.5 69.4,25.2 69.3,48.2 52.1,53.5 52.1,53.5 
				34.9,58.7 18.1,63.9 18.2,40.9 35,35.7 17.6,30.1 17.6,30.1 17.6,30.1 			"/>
			<polygon class="st20" points="35,35.7 18.2,40.9 0.8,35.3 17.6,30.1 			"/>
			<polygon class="st16" points="18.2,40.9 18.1,63.9 0.7,58.2 0.8,35.3 			"/>
		</g>
	</g>
</g>
</svg>
