<?xml version="1.0" encoding="utf-8"?>
<!-- Generator: Adobe Illustrator 22.0.1, SVG Export Plug-In . SVG Version: 6.00 Build 0)  -->
<svg version="1.1" id="Layer_1" xmlns="http://www.w3.org/2000/svg" xmlns:xlink="http://www.w3.org/1999/xlink" x="0px" y="0px"
	 viewBox="0 0 441.6 436.1" style="enable-background:new 0 0 441.6 436.1;" xml:space="preserve">
<style type="text/css">
	.st0{fill:#EFEFEF;}
</style>
<g>
	<path class="st0" d="M193.7,140.2c0.1-3.4-1.2-4.8-4.7-4.8c-8.8,0.1-17.6,0.1-26.4,0c-3.1-0.1-4,1.1-4,4.1c0.1,8.6,0.1,17.3,0,25.9
		c0,3,0.9,4.2,4,4.1c4.5-0.2,9,0,13.5,0c4.3,0,8.7-0.2,13,0.1c3.3,0.2,4.8-0.7,4.7-4.4C193.5,156.8,193.6,148.5,193.7,140.2z
		 M176.2,162.4c-10.5,0-9.5,0.9-9.6-9.7c0-9.3,0-9.3,9.1-9.3c0.2,0,0.3,0,0.5,0c9.4,0,9.4,0,9.4,9.5
		C185.6,162.4,185.6,162.5,176.2,162.4z"/>
	<path class="st0" d="M343.1,74.7c-0.1-8.7-0.5-17.3,0.2-25.9c0.4-4.3-0.9-4.9-4.4-4.8c-4.2,0.1-8.3,0-12.5,0c-4.5,0-9,0.1-13.5,0
		c-3.1-0.1-4,1.1-4,4.1c0.1,8.3,0.2,16.6,0,25c-0.1,4,1.1,5.2,5.1,5.1c8.3-0.2,16.7-0.5,24.9,0.3C342.9,78.8,343.1,77.6,343.1,74.7z
		 M325.9,71c-9.6,0-9.8-0.3-9.8-9.9c0-1.2,0-2.3,0.1-3.5c0.5-3.8,1.8-6.6,6.6-5.7c1.8,0.3,3.6,0.1,5.5,0.1c7.1,0,7.7,0.6,7.9,7.9
		c0,0.2,0,0.3,0,0.5C336.2,70.5,335.7,71,325.9,71z"/>
	<path class="st0" d="M193.1,285.4c-6-9.7-11.9-19.5-17.9-29.3c-0.8-1.4-1-3.7-2.9-3.7c-2.2-0.1-3.2,2-4.3,3.7
		c-5.7,9.5-11.4,19.1-17.2,28.5c-1.8,2.9-2.1,4.4,2.2,4.3c13.8-0.1,27.5,0,41.3,0C194.9,287.5,193.8,286.6,193.1,285.4z
		 M177.5,281.5c-4.4-1-8.9,0-14-0.8c2.5-4.2,4.7-7.8,6.9-11.5c1.1-1.8,2-2.6,3.4-0.1c1.7,3.2,3.6,6.3,5.4,9.4
		C180.4,280.6,179.7,282,177.5,281.5z"/>
	<path class="st0" d="M335.7,213.6c-12-0.2-19.4,5.9-19.6,16.2c-0.2,9.6,7.6,17.6,17.5,17.8c9.6,0.2,17.4-7.4,17.5-17.1
		C351.2,221.3,344.2,213.7,335.7,213.6z M343,230.6c-0.4,5.1-5.5,9.4-10.6,8.9c-4-0.4-8.5-5.7-8.3-9.7c0.2-4,5.5-9,9.5-8.8
		C338.7,221.2,343.4,225.9,343,230.6z"/>
	<path class="st0" d="M358.7,363c-9.1-1.6-18.1,7.7-17.8,17.1c0.4,9.6,7.4,16.5,16.9,17.1c10.7,0.6,17.7-9.2,18.1-17.4
		C376.2,372.9,369.1,361.5,358.7,363z M357.9,389c-4.5,0.1-8.7-4.1-8.8-8.8c-0.1-6,3.2-9.1,9.8-9.2c5-0.1,8.4,3.2,8.6,8.2
		C367.7,384.5,363.4,388.9,357.9,389z"/>
	<path class="st0" d="M113.3,362.3c0.6-0.6,1.3-1.1,0.9-2.7c-0.2-1.8-2.3-2.6-3.7-3.8c-1.5-1.4-2.7,0.2-3.8,1.2
		c-2.6,2.5-5.1,6.8-8,7.1c-3.4,0.4-5.6-4.4-8.3-7c-2.6-2.5-4.5-1.4-6.2,0.7c-2,2.6-0.3,4.5,1.3,6.6c1.9,2.4,6,3.7,5.9,6.8
		c-0.1,3-3.8,4.8-6,7c-2.5,2.4-3.1,4.1-0.4,7c2.9,3.1,4.4,1.2,6.4-0.8c2.1-2.1,4-5.3,6.5-6c3-0.8,4.3,3.5,6.7,5.1
		c0.1,0.1,0.3,0.2,0.4,0.3c2.5,2,4.7,3,7.4-0.3c2.8-3.4-0.4-4.4-1.8-5.9c-6.1-6.3-6.1-6.3,0.2-12.6
		C111.6,364,112.5,363.2,113.3,362.3z"/>
	<path class="st0" d="M103.1,67.2c2.1-1.7,2.2-3.7,0-5.9c-2-1.9-3.6-2.8-5.6-0.2c-2.2,2.7-5.2,5.6-7.8,6.5c-2.7,0.9-4.9-4-7.5-6.2
		c-0.4-0.3-0.7-0.7-1.1-1c-1.5-1.2-2.7-1.1-4.3,0.3c-2.9,2.5-2.6,4.8-0.1,7c2.2,2,4.6,3.8,6.3,5.2c-1.5,4.8-4.3,6.5-6.9,8.6
		c-2.5,1.9-3.4,3.6-0.5,6.3c2.4,2.4,3.7,2.7,6.3,0.1c7.3-7.5,7.4-7.4,15-0.1c1.3,1.2,2.5,4.6,5,1.5c1.7-2.1,4.5-4.3,1-7.5
		c-2.5-2.3-6.8-4.5-6.6-7.6C96.2,71.4,100.3,69.4,103.1,67.2z"/>
</g>
</svg>
