<?xml version="1.0" encoding="utf-8"?>
<!-- Generator: Adobe Illustrator 22.0.1, SVG Export Plug-In . SVG Version: 6.00 Build 0)  -->
<svg version="1.1" id="Layer_1" xmlns="http://www.w3.org/2000/svg" xmlns:xlink="http://www.w3.org/1999/xlink" x="0px" y="0px"
	 viewBox="0 0 105.7 102.1" style="enable-background:new 0 0 105.7 102.1;" xml:space="preserve">
<style type="text/css">
	.st0{opacity:0.74;fill:#02B757;}
</style>
<g>
	<path class="st0" d="M90.7,45.1H71.9V30.4l23.8-0.5c7.2-0.2,8-12.5,0-12.8l-9-0.2V6.4c-0.3-6.2-14.2-6.6-14.5,0v10.1
		c-23.3,2.2-20,42.4-3.7,42.2l18.2,0.5c5.6,0.2,4.8,13.7,0,13.7l-27.8-0.1c-3.3,0-6.5-1.2-9-3.3L37.3,58.8
		c16.1-0.3,14.9-41.2,3.4-41.4H8.6c-3.4,0-6.2,2.8-6.2,6.2V82c0,6.9,13.9,6.6,14.1-0.3L17,61.1l27.3,22.5c3.1,2.5,7,3.9,11,3.8
		L73,87l-0.2,10.1c0.3,6.2,14.5,5.8,14.4,0l-0.3-9.6C111.5,85.1,107.5,45.7,90.7,45.1z M35.2,45.1H16.6V30.9h18.6V45.1z"/>
</g>
</svg>
